<svg width="400" height="400" viewBox="0 0 400 400" fill="none" xmlns="http://www.w3.org/2000/svg">
<path opacity="0.3" d="M170.694 157.902L17.6863 230.633V296.256L157.172 229.956L170.643 233.595L170.694 157.902Z" fill="url(#paint0_linear)"/>
<path fill-rule="evenodd" clip-rule="evenodd" d="M139.589 194.627C139.589 200.043 143.496 202.582 148.278 200.297C153.059 198.012 156.967 191.793 156.967 186.377C156.967 180.961 153.059 178.423 148.278 180.707C143.496 182.992 139.589 189.254 139.589 194.627Z" fill="#B91313"/>
<path opacity="0.15" d="M131.362 192.554L97.8406 208.505V214.259L131.362 198.308V192.554Z" fill="#F7F7F7" fill-opacity="0.3"/>
<path opacity="0.15" d="M131.362 204.105L31.2083 251.703V257.458L131.362 209.859V204.105Z" fill="#F7F7F7" fill-opacity="0.3"/>
<path opacity="0.15" d="M131.362 215.613L53.0591 252.846V258.6L131.362 221.367V215.613Z" fill="#F7F7F7" fill-opacity="0.3"/>
<path opacity="0.3" d="M281.851 70.3629L195.681 111.277V242.649L281.851 201.735V70.3629Z" fill="url(#paint1_linear)"/>
<path opacity="0.15" d="M273.368 148.34L204.165 181.215V186.969L273.368 154.094V148.34Z" fill="#F7F7F7" fill-opacity="0.3"/>
<path opacity="0.15" d="M268.535 161.837L209.049 190.1V195.854L268.535 167.591V161.837Z" fill="#F7F7F7" fill-opacity="0.3"/>
<path fill-rule="evenodd" clip-rule="evenodd" d="M243.393 185.361L303.342 156.887V171.568L243.393 200.043L243.393 185.361Z" fill="#DB3834"/>
<path fill-rule="evenodd" clip-rule="evenodd" d="M228.946 121.981C228.946 128.328 233.419 131.332 238.92 128.708C244.422 126.043 248.895 118.766 248.895 112.377C248.895 106.03 244.422 103.026 238.92 105.65C233.419 108.357 228.946 115.635 228.946 121.981Z" fill="#DB3834"/>
<path fill-rule="evenodd" clip-rule="evenodd" d="M238.92 133.828C247.815 129.555 255.167 133.574 256.452 142.755C256.658 144.363 255.218 146.479 253.419 147.325L224.422 161.287C222.622 162.133 221.182 161.456 221.388 159.637C222.673 149.186 230.026 138.101 238.92 133.828Z" fill="#DB3834"/>
<path opacity="0.3" d="M222.057 227.714L135.887 268.627V400L222.057 359.086V227.714Z" fill="url(#paint2_linear)"/>
<path opacity="0.15" d="M213.625 305.691L144.422 338.566V344.32L213.625 311.445V305.691Z" fill="#F7F7F7" fill-opacity="0.3"/>
<path opacity="0.15" d="M208.792 319.188L149.306 347.451V353.205L208.792 324.942V319.188Z" fill="#F7F7F7" fill-opacity="0.3"/>
<path fill-rule="evenodd" clip-rule="evenodd" d="M114.55 375.502L174.499 347.028V361.709L114.55 390.184V375.502Z" fill="#B91313"/>
<path fill-rule="evenodd" clip-rule="evenodd" d="M169.203 279.332C169.203 285.678 173.676 288.683 179.177 286.059C184.679 283.394 189.152 276.116 189.152 269.728C189.152 263.381 184.679 260.377 179.177 263C173.676 265.666 169.203 272.986 169.203 279.332Z" fill="#B91313"/>
<path fill-rule="evenodd" clip-rule="evenodd" d="M179.177 291.179C188.072 286.905 195.424 290.925 196.709 300.106C196.915 301.714 195.476 303.829 193.676 304.676L164.679 318.638C162.879 319.484 161.44 318.807 161.645 316.988C162.931 306.537 170.283 295.452 179.177 291.179Z" fill="#B91313"/>
<path opacity="0.3" d="M246.992 216.248L400 143.517V209.14L260.463 275.439L246.941 291.898L246.992 216.248Z" fill="url(#paint3_linear)"/>
<path fill-rule="evenodd" clip-rule="evenodd" d="M278.098 223.44C278.098 228.856 274.19 235.076 269.409 237.36C264.627 239.645 260.72 237.107 260.72 231.691C260.72 226.275 264.627 220.056 269.409 217.771C274.19 215.486 278.098 218.025 278.098 223.44Z" fill="#DB3834"/>
<path opacity="0.15" d="M286.324 213.498L319.846 197.547V203.301L286.324 219.252V213.498Z" fill="#F7F7F7" fill-opacity="0.3"/>
<path opacity="0.15" d="M286.324 225.048L386.427 177.449V183.204L286.324 230.802V225.048Z" fill="#F7F7F7" fill-opacity="0.3"/>
<path opacity="0.15" d="M286.324 236.599L364.627 199.366V205.12L286.324 242.353V236.599Z" fill="#F7F7F7" fill-opacity="0.3"/>
<path opacity="0.4" d="M20.5656 54.2851C107.352 13.0329 178.303 61.9009 178.303 164.46L200.463 153.925C200.411 38.0804 120.154 -18.2765 20.5656 29.0261V54.2851Z" fill="url(#paint4_linear)"/>
<path opacity="0.4" d="M92.9563 205.078C92.9563 159.552 60.5655 138.017 20.6169 156.972V131.712C72.802 106.919 115.064 135.055 115.116 194.543L92.9563 205.078Z" fill="url(#paint5_linear)"/>
<path opacity="0.4" d="M136.144 184.092C136.144 111.404 84.4216 77.0479 20.7198 107.342V82.0828C96.7095 45.9924 158.303 86.9484 158.303 173.557L136.144 184.092Z" fill="url(#paint6_linear)"/>
<path opacity="0.4" d="M41.6452 229.406C30.0257 234.949 20.6169 228.645 20.6169 215.402C20.6169 202.159 30.0257 186.927 41.6452 181.384C53.2648 175.842 62.6735 182.146 62.6735 195.389C62.6735 208.674 53.2648 223.864 41.6452 229.406Z" fill="url(#paint7_linear)"/>
<path opacity="0.07" d="M0 42.0152C86.7866 0.763011 157.738 49.631 157.738 152.19L179.897 141.655C179.846 25.8105 99.5887 -30.5464 0 16.7562V42.0152Z" fill="url(#paint8_linear)"/>
<path opacity="0.07" d="M72.3907 192.808C72.3907 147.283 40 125.747 0.0513916 144.702V119.443C52.2365 94.6489 94.4987 122.785 94.5501 182.273L72.3907 192.808Z" fill="url(#paint9_linear)"/>
<path opacity="0.07" d="M115.579 171.822C115.579 99.1337 63.8566 64.778 0.154846 95.0719V69.8129C76.1445 33.7225 137.738 74.6785 137.738 161.287L115.579 171.822Z" fill="url(#paint10_linear)"/>
<path opacity="0.07" d="M21.0797 217.136C9.46013 222.679 0.0513916 216.375 0.0513916 203.132C0.0513916 189.889 9.46013 174.657 21.0797 169.114C32.6992 163.572 42.1079 169.876 42.1079 183.119C42.1079 196.404 32.6992 211.594 21.0797 217.136Z" fill="url(#paint11_linear)"/>
<path opacity="0.2" d="M88.4319 282.844C85.3471 284.282 82.8792 287.836 82.8792 290.756V303.66L72.4936 308.568C69.4088 310.007 66.9409 313.561 66.9409 316.48C66.9409 319.4 69.4088 320.584 72.4936 319.146L82.8792 314.238V327.142C82.8792 330.062 85.3471 331.246 88.4319 329.808C91.5168 328.369 93.9846 324.815 93.9846 321.896V308.991L104.37 304.083C107.455 302.645 109.923 299.091 109.923 296.171C109.923 293.252 107.455 292.067 104.37 293.506L93.9846 298.414V285.509C93.9846 282.59 91.5168 281.405 88.4319 282.844Z" fill="url(#paint12_linear)"/>
<path opacity="0.2" d="M333.419 98.5414L319.126 121.643C317.172 124.816 317.481 127.989 319.846 128.751C322.211 129.512 325.707 127.524 327.661 124.35L327.815 124.054V149.694C327.815 152.614 330.283 153.798 333.368 152.36C336.452 150.879 338.92 147.367 338.92 144.448V118.808L339.075 118.935C341.028 120.246 344.576 118.892 346.889 115.888C349.254 112.884 349.563 109.415 347.609 108.103L333.419 98.5414Z" fill="url(#paint13_linear)"/>
<defs>
<linearGradient id="paint0_linear" x1="31.9183" y1="151.142" x2="15.7764" y2="283.59" gradientUnits="userSpaceOnUse">
<stop offset="0.354167" stop-color="#424242"/>
<stop offset="1" stop-color="white" stop-opacity="0.01"/>
</linearGradient>
<linearGradient id="paint1_linear" x1="159.181" y1="158.387" x2="261.541" y2="194.894" gradientUnits="userSpaceOnUse">
<stop offset="0.302083" stop-color="#424242"/>
<stop offset="1" stop-color="white" stop-opacity="0.01"/>
</linearGradient>
<linearGradient id="paint2_linear" x1="99.4339" y1="315.728" x2="201.794" y2="352.235" gradientUnits="userSpaceOnUse">
<stop offset="0.25" stop-color="#424242"/>
<stop offset="1" stop-color="white" stop-opacity="0.01"/>
</linearGradient>
<linearGradient id="paint3_linear" x1="254.131" y1="228.224" x2="331.614" y2="281.321" gradientUnits="userSpaceOnUse">
<stop offset="0.177083" stop-color="#424242"/>
<stop offset="1" stop-color="white" stop-opacity="0.01"/>
</linearGradient>
<linearGradient id="paint4_linear" x1="-21.416" y1="63.7681" x2="83.0591" y2="203.94" gradientUnits="userSpaceOnUse">
<stop stop-color="#424242"/>
<stop offset="1" stop-color="white" stop-opacity="0.01"/>
</linearGradient>
<linearGradient id="paint5_linear" x1="-98.0225" y1="120.998" x2="10.9417" y2="258.694" gradientUnits="userSpaceOnUse">
<stop offset="0.28125" stop-color="#424242"/>
<stop offset="1" stop-color="white" stop-opacity="0.01"/>
</linearGradient>
<linearGradient id="paint6_linear" x1="-62.407" y1="91.1555" x2="40.4086" y2="232.16" gradientUnits="userSpaceOnUse">
<stop offset="0.0260417" stop-color="#424242"/>
<stop offset="1" stop-color="white" stop-opacity="0.01"/>
</linearGradient>
<linearGradient id="paint7_linear" x1="-121.459" y1="175.529" x2="25.5565" y2="267.703" gradientUnits="userSpaceOnUse">
<stop offset="0.65625" stop-color="#424242"/>
<stop offset="1" stop-color="white" stop-opacity="0.01"/>
</linearGradient>
<linearGradient id="paint8_linear" x1="-41.9806" y1="51.4983" x2="62.4946" y2="191.671" gradientUnits="userSpaceOnUse">
<stop stop-color="#424242"/>
<stop offset="1" stop-color="white" stop-opacity="0.01"/>
</linearGradient>
<linearGradient id="paint9_linear" x1="-118.587" y1="108.728" x2="-9.62297" y2="246.424" gradientUnits="userSpaceOnUse">
<stop offset="0.385417" stop-color="#424242"/>
<stop offset="1" stop-color="white" stop-opacity="0.01"/>
</linearGradient>
<linearGradient id="paint10_linear" x1="-82.9711" y1="78.8852" x2="19.844" y2="219.89" gradientUnits="userSpaceOnUse">
<stop offset="0.0104167" stop-color="#424242"/>
<stop offset="1" stop-color="white" stop-opacity="0.01"/>
</linearGradient>
<linearGradient id="paint11_linear" x1="-142.024" y1="163.259" x2="4.9916" y2="255.433" gradientUnits="userSpaceOnUse">
<stop offset="0.447917" stop-color="#424242"/>
<stop offset="1" stop-color="white" stop-opacity="0.01"/>
</linearGradient>
<linearGradient id="paint12_linear" x1="69.8853" y1="314.442" x2="98.2611" y2="329.105" gradientUnits="userSpaceOnUse">
<stop offset="0.161458" stop-color="#424242"/>
<stop offset="1" stop-color="white" stop-opacity="0.01"/>
</linearGradient>
<linearGradient id="paint13_linear" x1="319.82" y1="144.688" x2="347.075" y2="148.757" gradientUnits="userSpaceOnUse">
<stop offset="0.166667" stop-color="#424242"/>
<stop offset="1" stop-color="white" stop-opacity="0.01"/>
</linearGradient>
</defs>
</svg>
