<svg width="400" height="400" viewBox="0 0 400 400" fill="none" xmlns="http://www.w3.org/2000/svg">
<path opacity="0.07" d="M170.113 0.937086L400 223.41L170.062 216.29C168.364 216.245 166.512 213.842 166.924 212.24L190.072 123.322L305.916 173.522L188.683 107.256L166.975 1.91616C166.564 -0.130998 168.416 -0.66504 170.113 0.937086Z" fill="url(#paint0_linear)"/>
<path opacity="0.4" d="M152.469 12.0184L382.356 234.491L152.418 227.371C150.72 227.326 148.868 224.923 149.28 223.321L172.377 134.448L288.22 184.647L171.091 118.337L149.331 12.9975C148.92 10.9503 150.772 10.4163 152.469 12.0184Z" fill="url(#paint1_linear)"/>
<path opacity="0.3" d="M169.393 247.041L16.3066 170.584L16.358 239.609L155.916 309.302L169.444 326.614L169.393 247.041Z" fill="url(#paint2_linear)"/>
<path fill-rule="evenodd" clip-rule="evenodd" d="M0 197.509V178.773L57.7675 207.611V226.347L0 197.509Z" fill="#B91313"/>
<path opacity="0.15" d="M130.041 244.193L96.5021 227.46V233.512L130.041 250.246V244.193Z" fill="#F7F7F7"/>
<path opacity="0.15" d="M130.041 256.298L65.3806 224.033V230.086L130.041 262.351V256.298Z" fill="#F7F7F7"/>
<path opacity="0.15" d="M130.093 268.448L51.749 229.329V235.382L130.093 274.5V268.448Z" fill="#F7F7F7"/>
<path fill-rule="evenodd" clip-rule="evenodd" d="M138.323 254.607C138.323 260.304 142.233 266.846 147.017 269.249C151.8 271.652 155.71 268.982 155.71 263.285C155.71 257.589 151.8 251.047 147.017 248.644C142.181 246.24 138.323 248.911 138.323 254.607Z" fill="#B91313"/>
<path opacity="0.3" d="M182.613 190.032L335.7 266.489L335.751 335.514L196.142 265.777L182.665 269.605L182.613 190.032Z" fill="url(#paint3_linear)"/>
<path fill-rule="evenodd" clip-rule="evenodd" d="M291.152 278.639V259.903L348.92 288.741V307.477L291.152 278.639Z" fill="#DB3834"/>
<path opacity="0.15" d="M221.965 226.481L255.504 243.214V249.267L221.965 232.533V226.481Z" fill="#F7F7F7"/>
<path opacity="0.15" d="M221.965 238.63L282.51 268.848V274.901L221.965 244.683V238.63Z" fill="#F7F7F7"/>
<path opacity="0.15" d="M222.016 250.735L300.36 289.854V295.906L222.016 256.788L222.016 250.735Z" fill="#F7F7F7"/>
<path fill-rule="evenodd" clip-rule="evenodd" d="M213.735 228.661C213.735 234.358 209.825 237.028 205.041 234.625C200.257 232.222 196.348 225.68 196.348 219.983C196.348 214.287 200.257 211.617 205.041 214.02C209.825 216.423 213.735 223.01 213.735 228.661Z" fill="#DB3834"/>
<path opacity="0.2" d="M356.636 358.79L265.226 313.129V354.339L356.636 400V358.79Z" fill="url(#paint4_linear)"/>
<path opacity="0.15" d="M288.632 334.758L316.101 348.509V353.449L288.632 339.698V334.758Z" fill="#F7F7F7"/>
<path opacity="0.15" d="M288.632 344.682L347.171 373.921V378.95L288.632 349.711V344.682Z" fill="#F7F7F7"/>
<path fill-rule="evenodd" clip-rule="evenodd" d="M283.796 336.226C283.796 339.609 281.482 341.211 278.601 339.787C275.72 338.363 273.405 334.446 273.405 331.064C273.405 327.682 275.72 326.08 278.601 327.504C281.482 328.928 283.796 332.844 283.796 336.226Z" fill="#DB3834"/>
<path opacity="0.2" d="M103.549 295.595L12.1399 249.934V291.145L103.549 336.805V295.595Z" fill="url(#paint5_linear)"/>
<path opacity="0.15" d="M35.5453 271.563L63.0144 285.314V290.254L35.5453 276.503V271.563Z" fill="#F7F7F7"/>
<path opacity="0.15" d="M35.5453 281.487L94.0844 310.726V315.755L35.5453 286.516V281.487Z" fill="#F7F7F7"/>
<path fill-rule="evenodd" clip-rule="evenodd" d="M30.7099 273.031C30.7099 276.414 28.395 278.016 25.5144 276.592C22.6337 275.168 20.3189 271.251 20.3189 267.869C20.3189 264.487 22.6337 262.885 25.5144 264.309C28.395 265.733 30.7099 269.649 30.7099 273.031Z" fill="#B91313"/>
<path opacity="0.2" d="M116.667 164.532L94.6502 153.54V147.131L116.667 158.123C118.467 159.014 121.091 160.838 123.302 163.642C125.72 166.624 127.418 170.406 127.418 174.501C127.418 179.04 126.08 181.621 123.56 182.333C121.193 183.001 118.364 181.844 116.667 180.998L107.613 176.459L107.562 176.414C106.79 176.014 105.556 175.613 104.578 175.88C103.755 176.103 102.881 176.77 102.881 179.307C102.881 181.844 103.807 183.357 104.527 184.292C105.453 185.449 106.687 186.25 107.459 186.606L107.562 186.65L135.237 200.491V206.899L107.716 193.148C105.813 192.302 103.086 190.478 100.72 187.629C98.1482 184.47 96.3992 180.509 96.3992 176.103C96.3992 171.697 98.1482 169.472 100.669 168.849C103.035 168.27 105.761 169.116 107.665 170.095L116.615 174.545C117.901 175.213 118.879 175.48 119.547 175.302C120.062 175.168 120.988 174.545 120.988 171.297C120.988 169.16 120.216 167.781 119.444 166.891C118.57 165.734 117.387 164.888 116.667 164.532Z" fill="#F7F7F7"/>
<path fill-rule="evenodd" clip-rule="evenodd" d="M98.6626 152.16C98.6626 157.901 94.7531 160.616 89.9692 158.257C85.1852 155.854 81.2758 149.267 81.2758 143.482C81.2758 137.741 85.1852 135.026 89.9692 137.385C94.7531 139.788 98.6626 146.419 98.6626 152.16Z" fill="#B91313"/>
<path fill-rule="evenodd" clip-rule="evenodd" d="M146.502 209.125C146.502 214.866 142.593 217.58 137.809 215.222C133.025 212.818 129.115 206.232 129.115 200.446C129.115 194.705 133.025 191.991 137.809 194.349C142.593 196.753 146.502 203.384 146.502 209.125Z" fill="#DB3834"/>
<path opacity="0.2" d="M207.613 301.113V338.63C207.613 339.03 208.076 339.475 208.385 339.342L218.519 333.957L228.858 349.8C229.424 350.646 230.401 350.735 230.401 349.934V312.551L207.613 301.113Z" fill="url(#paint6_linear)"/>
<defs>
<linearGradient id="paint0_linear" x1="251.463" y1="27.0976" x2="151.906" y2="150.959" gradientUnits="userSpaceOnUse">
<stop offset="0.197917" stop-color="#424242"/>
<stop offset="1" stop-color="white" stop-opacity="0.01"/>
</linearGradient>
<linearGradient id="paint1_linear" x1="233.825" y1="38.1718" x2="134.268" y2="162.034" gradientUnits="userSpaceOnUse">
<stop offset="0.203125" stop-color="#424242"/>
<stop offset="1" stop-color="white" stop-opacity="0.01"/>
</linearGradient>
<linearGradient id="paint2_linear" x1="109.743" y1="179.11" x2="29.8048" y2="231.271" gradientUnits="userSpaceOnUse">
<stop offset="0.182292" stop-color="#424242"/>
<stop offset="1" stop-color="white" stop-opacity="0.01"/>
</linearGradient>
<linearGradient id="paint3_linear" x1="175.295" y1="201.655" x2="193.186" y2="340.765" gradientUnits="userSpaceOnUse">
<stop offset="0.171875" stop-color="#424242"/>
<stop offset="1" stop-color="white" stop-opacity="0.01"/>
</linearGradient>
<linearGradient id="paint4_linear" x1="304.978" y1="331.301" x2="285.813" y2="363.106" gradientUnits="userSpaceOnUse">
<stop offset="0.395833" stop-color="#424242"/>
<stop offset="1" stop-color="white" stop-opacity="0.01"/>
</linearGradient>
<linearGradient id="paint5_linear" x1="51.8908" y1="268.105" x2="32.726" y2="299.911" gradientUnits="userSpaceOnUse">
<stop offset="0.192708" stop-color="#424242"/>
<stop offset="1" stop-color="white" stop-opacity="0.01"/>
</linearGradient>
<linearGradient id="paint6_linear" x1="225.59" y1="292.203" x2="198.365" y2="295.38" gradientUnits="userSpaceOnUse">
<stop offset="0.177083" stop-color="#424242"/>
<stop offset="1" stop-color="white" stop-opacity="0.01"/>
</linearGradient>
</defs>
</svg>
