<svg width="148" height="78" viewBox="0 0 148 78" fill="none" xmlns="http://www.w3.org/2000/svg">
<path d="M38.848 39.6H43.392V56.688C41.3013 58.5227 38.8267 59.9307 35.968 60.912C33.1093 61.8933 30.1013 62.384 26.944 62.384C22.464 62.384 18.432 61.4027 14.848 59.44C11.264 57.4773 8.448 54.768 6.4 51.312C4.352 47.8133 3.328 43.9093 3.328 39.6C3.328 35.2907 4.352 31.408 6.4 27.952C8.448 24.4533 11.264 21.7227 14.848 19.76C18.432 17.7973 22.4853 16.816 27.008 16.816C30.4213 16.816 33.5573 17.3707 36.416 18.48C39.2747 19.5467 41.6853 21.1467 43.648 23.28L40.704 26.288C37.1627 22.7893 32.6613 21.04 27.2 21.04C23.5733 21.04 20.288 21.8507 17.344 23.472C14.4427 25.0507 12.16 27.2693 10.496 30.128C8.832 32.944 8 36.1013 8 39.6C8 43.0987 8.832 46.256 10.496 49.072C12.16 51.888 14.4427 54.1067 17.344 55.728C20.2453 57.3493 23.5093 58.16 27.136 58.16C31.744 58.16 35.648 57.008 38.848 54.704V39.6ZM60.188 34.928C61.2547 32.6667 62.8333 30.96 64.924 29.808C67.0573 28.656 69.6813 28.08 72.796 28.08V32.496L71.708 32.432C68.1667 32.432 65.3933 33.52 63.388 35.696C61.3827 37.872 60.38 40.9227 60.38 44.848V62H55.836V28.336H60.188V34.928Z" fill="#424242"/>
<ellipse cx="58" cy="19.2974" rx="3" ry="2.88907" fill="#424242"/>
<path d="M95.568 24.6H97.272V31.008C96.488 31.696 95.56 32.224 94.488 32.592C93.416 32.96 92.288 33.144 91.104 33.144C89.424 33.144 87.912 32.776 86.568 32.04C85.224 31.304 84.168 30.288 83.4 28.992C82.632 27.68 82.248 26.216 82.248 24.6C82.248 22.984 82.632 21.528 83.4 20.232C84.168 18.92 85.224 17.896 86.568 17.16C87.912 16.424 89.432 16.056 91.128 16.056C92.408 16.056 93.584 16.264 94.656 16.68C95.728 17.08 96.632 17.68 97.368 18.48L96.264 19.608C94.936 18.296 93.248 17.64 91.2 17.64C89.84 17.64 88.608 17.944 87.504 18.552C86.416 19.144 85.56 19.976 84.936 21.048C84.312 22.104 84 23.288 84 24.6C84 25.912 84.312 27.096 84.936 28.152C85.56 29.208 86.416 30.04 87.504 30.648C88.592 31.256 89.816 31.56 91.176 31.56C92.904 31.56 94.368 31.128 95.568 30.264V24.6ZM112.931 27.216H102.371C102.467 28.528 102.971 29.592 103.883 30.408C104.795 31.208 105.947 31.608 107.339 31.608C108.123 31.608 108.843 31.472 109.499 31.2C110.155 30.912 110.723 30.496 111.203 29.952L112.163 31.056C111.603 31.728 110.899 32.24 110.051 32.592C109.219 32.944 108.299 33.12 107.291 33.12C105.995 33.12 104.843 32.848 103.835 32.304C102.843 31.744 102.067 30.976 101.507 30C100.947 29.024 100.667 27.92 100.667 26.688C100.667 25.456 100.931 24.352 101.459 23.376C102.003 22.4 102.739 21.64 103.667 21.096C104.611 20.552 105.667 20.28 106.835 20.28C108.003 20.28 109.051 20.552 109.979 21.096C110.907 21.64 111.635 22.4 112.163 23.376C112.691 24.336 112.955 25.44 112.955 26.688L112.931 27.216ZM106.835 21.744C105.619 21.744 104.595 22.136 103.763 22.92C102.947 23.688 102.483 24.696 102.371 25.944H111.323C111.211 24.696 110.739 23.688 109.907 22.92C109.091 22.136 108.067 21.744 106.835 21.744ZM123.071 32.232C122.751 32.52 122.351 32.744 121.871 32.904C121.407 33.048 120.919 33.12 120.407 33.12C119.223 33.12 118.311 32.8 117.671 32.16C117.031 31.52 116.711 30.616 116.711 29.448V21.816H114.455V20.376H116.711V17.616H118.415V20.376H122.255V21.816H118.415V29.352C118.415 30.104 118.599 30.68 118.967 31.08C119.351 31.464 119.895 31.656 120.599 31.656C120.951 31.656 121.287 31.6 121.607 31.488C121.943 31.376 122.231 31.216 122.471 31.008L123.071 32.232ZM132.454 20.376H134.158V33H132.454V20.376ZM133.318 17.616C132.966 17.616 132.67 17.496 132.43 17.256C132.19 17.016 132.07 16.728 132.07 16.392C132.07 16.072 132.19 15.792 132.43 15.552C132.67 15.312 132.966 15.192 133.318 15.192C133.67 15.192 133.966 15.312 134.206 15.552C134.446 15.776 134.566 16.048 134.566 16.368C134.566 16.72 134.446 17.016 134.206 17.256C133.966 17.496 133.67 17.616 133.318 17.616ZM145.547 32.232C145.227 32.52 144.827 32.744 144.347 32.904C143.883 33.048 143.395 33.12 142.883 33.12C141.699 33.12 140.787 32.8 140.147 32.16C139.507 31.52 139.187 30.616 139.187 29.448V21.816H136.931V20.376H139.187V17.616H140.891V20.376H144.731V21.816H140.891V29.352C140.891 30.104 141.075 30.68 141.443 31.08C141.827 31.464 142.371 31.656 143.075 31.656C143.427 31.656 143.763 31.6 144.083 31.488C144.419 31.376 144.707 31.216 144.947 31.008L145.547 32.232ZM95.208 62L91.368 56.6C90.936 56.648 90.488 56.672 90.024 56.672H85.512V62H83.736V45.2H90.024C92.168 45.2 93.848 45.712 95.064 46.736C96.28 47.76 96.888 49.168 96.888 50.96C96.888 52.272 96.552 53.384 95.88 54.296C95.224 55.192 94.28 55.84 93.048 56.24L97.152 62H95.208ZM89.976 55.16C91.64 55.16 92.912 54.792 93.792 54.056C94.672 53.32 95.112 52.288 95.112 50.96C95.112 49.6 94.672 48.56 93.792 47.84C92.912 47.104 91.64 46.736 89.976 46.736H85.512V55.16H89.976ZM100.72 49.376H102.424V62H100.72V49.376ZM101.584 46.616C101.232 46.616 100.936 46.496 100.696 46.256C100.456 46.016 100.336 45.728 100.336 45.392C100.336 45.072 100.456 44.792 100.696 44.552C100.936 44.312 101.232 44.192 101.584 44.192C101.936 44.192 102.232 44.312 102.472 44.552C102.712 44.776 102.832 45.048 102.832 45.368C102.832 45.72 102.712 46.016 102.472 46.256C102.232 46.496 101.936 46.616 101.584 46.616ZM118.853 49.376V60.464C118.853 62.608 118.325 64.192 117.269 65.216C116.229 66.256 114.653 66.776 112.541 66.776C111.373 66.776 110.261 66.6 109.205 66.248C108.165 65.912 107.317 65.44 106.661 64.832L107.525 63.536C108.133 64.08 108.869 64.504 109.733 64.808C110.613 65.112 111.533 65.264 112.493 65.264C114.093 65.264 115.269 64.888 116.021 64.136C116.773 63.4 117.149 62.248 117.149 60.68V59.072C116.621 59.872 115.925 60.48 115.061 60.896C114.213 61.312 113.269 61.52 112.229 61.52C111.045 61.52 109.965 61.264 108.989 60.752C108.029 60.224 107.269 59.496 106.709 58.568C106.165 57.624 105.893 56.56 105.893 55.376C105.893 54.192 106.165 53.136 106.709 52.208C107.269 51.28 108.029 50.56 108.989 50.048C109.949 49.536 111.029 49.28 112.229 49.28C113.301 49.28 114.269 49.496 115.133 49.928C115.997 50.36 116.693 50.984 117.221 51.8V49.376H118.853ZM112.397 60.008C113.309 60.008 114.133 59.816 114.869 59.432C115.605 59.032 116.173 58.48 116.573 57.776C116.989 57.072 117.197 56.272 117.197 55.376C117.197 54.48 116.989 53.688 116.573 53C116.173 52.296 115.605 51.752 114.869 51.368C114.149 50.968 113.325 50.768 112.397 50.768C111.485 50.768 110.661 50.96 109.925 51.344C109.205 51.728 108.637 52.272 108.221 52.976C107.821 53.68 107.621 54.48 107.621 55.376C107.621 56.272 107.821 57.072 108.221 57.776C108.637 58.48 109.205 59.032 109.925 59.432C110.661 59.816 111.485 60.008 112.397 60.008ZM130.05 49.28C131.634 49.28 132.89 49.744 133.818 50.672C134.762 51.584 135.234 52.92 135.234 54.68V62H133.53V54.848C133.53 53.536 133.202 52.536 132.546 51.848C131.89 51.16 130.954 50.816 129.738 50.816C128.378 50.816 127.298 51.224 126.498 52.04C125.714 52.84 125.322 53.952 125.322 55.376V62H123.618V44.192H125.322V51.584C125.786 50.848 126.426 50.28 127.242 49.88C128.058 49.48 128.994 49.28 130.05 49.28ZM146.508 61.232C146.188 61.52 145.788 61.744 145.308 61.904C144.844 62.048 144.356 62.12 143.844 62.12C142.66 62.12 141.748 61.8 141.108 61.16C140.468 60.52 140.148 59.616 140.148 58.448V50.816H137.892V49.376H140.148V46.616H141.852V49.376H145.692V50.816H141.852V58.352C141.852 59.104 142.036 59.68 142.404 60.08C142.788 60.464 143.332 60.656 144.036 60.656C144.388 60.656 144.724 60.6 145.044 60.488C145.38 60.376 145.668 60.216 145.908 60.008L146.508 61.232Z" fill="#424242"/>
</svg>
