<svg width="66" height="65" viewBox="0 0 66 65" fill="none" xmlns="http://www.w3.org/2000/svg">
<path d="M13.3563 1.16061C8.32214 2.73933 2.99184 8.56084 1.70862 13.9877C0.227985 19.8092 0.227985 45.0687 1.70862 50.8902C3.09055 56.5144 8.42085 62.1386 13.9486 63.816C19.3776 65.3947 46.8187 65.3947 52.2477 63.816C57.7754 62.1386 63.1057 56.5144 64.4877 50.8902C65.9683 45.0687 65.9683 19.8092 64.4877 13.9877C63.1057 8.36351 57.7754 2.73933 52.2477 1.06194C47.1148 -0.418114 18.1931 -0.319443 13.3563 1.16061ZM52.9387 7.27814C58.96 10.4356 59.7496 13.1983 59.7496 32.4389C59.7496 47.8314 59.5522 50.0022 57.7754 52.8636C54.4193 58.4878 51.9516 59.0798 32.9007 59.0798C13.9486 59.0798 11.086 58.2905 7.9273 52.2716C5.7557 48.0288 5.7557 16.8491 7.9273 12.6063C11.086 6.58745 13.9486 5.79809 32.9007 5.79809C46.4239 5.79809 50.5697 6.0941 52.9387 7.27814Z" fill="#DB3834"/>
<path d="M48.2993 13.7905C47.3122 15.4677 50.5697 18.3289 51.9516 16.9476C52.6426 16.257 52.84 15.0731 52.5439 14.2838C51.8529 12.5079 49.2864 12.212 48.2993 13.7905Z" fill="#DB3834"/>
<path d="M27.3731 16.06C22.5363 17.7374 17.6996 22.9669 16.3177 27.9991C13.9486 36.3861 18.0944 44.477 26.5834 48.3252C32.0124 50.7919 34.7763 50.6933 40.6988 47.6345C44.8446 45.6611 46.3252 44.181 48.2994 40.0369C51.162 34.4127 51.3594 32.834 49.6813 27.3084C47.7071 20.6975 39.9091 14.876 33.0982 14.876C31.7163 14.876 29.1498 15.3693 27.3731 16.06ZM39.0207 22.0789C40.6001 22.9669 42.5743 24.9403 43.4627 26.5191C47.7071 34.8074 42.1794 44.2797 33.0982 44.2797C24.017 44.2797 18.4893 34.8074 22.7338 26.5191C25.5963 21.0922 33.0982 19.0201 39.0207 22.0789Z" fill="#DB3834"/>
</svg>
