<svg width="16" height="20" viewBox="0 0 16 20" fill="none" xmlns="http://www.w3.org/2000/svg">
<path d="M7.73311 0.270912C4.67856 1.30869 2.52076 3.15985 1.23168 5.93659C0.559115 7.36703 0.447021 7.98408 0.447021 10.0035C0.447021 12.023 0.559115 12.64 1.23168 14.0985C2.24052 16.2582 4.14611 18.1655 6.33194 19.1752C8.60184 20.241 11.6564 20.2691 14.2626 19.2874C15.2154 18.9228 16 18.5581 16 18.4459C16 18.3618 15.4396 18.0533 14.767 17.7728C14.0944 17.4923 13.0295 16.8192 12.413 16.2863C9.69475 13.9583 8.85405 9.61086 10.4794 6.30121C11.3762 4.4781 12.9735 2.99156 14.767 2.23426C15.4396 1.95379 16 1.64526 16 1.56112C16 1.47697 15.2714 1.11235 14.4027 0.747726C12.413 -0.00956535 9.30242 -0.23395 7.73311 0.270912ZM11.7965 1.81355C11.7965 1.95379 11.4042 2.40255 10.9278 2.87937C7.06055 6.52559 6.94846 13.229 10.7036 16.9033C11.2921 17.4923 11.7965 18.0813 11.7965 18.2216C11.7965 18.7545 8.18149 18.2216 6.6402 17.4643C0.0546935 14.2388 0.699232 4.53419 7.67707 2.12207C9.16231 1.58916 11.7965 1.42088 11.7965 1.81355Z" fill="#424242"/>
</svg>
