<svg width="21" height="20" viewBox="0 0 21 20" fill="none" xmlns="http://www.w3.org/2000/svg">
<path d="M9.72638 1.92308V3.84616H10.4949H11.2635V1.92308V7.15256e-06H10.4949H9.72638V1.92308Z" fill="#DB3834"/>
<path d="M3.37292 2.87179C2.86055 3.38461 3.01426 3.66667 4.34643 5L5.62737 6.25641L6.19098 5.69231L6.75459 5.1282L5.49927 3.84615C4.1671 2.51282 3.8853 2.35897 3.37292 2.87179Z" fill="#DB3834"/>
<path d="M15.4906 3.84615L14.2353 5.1282L14.7989 5.6923L15.3625 6.28204L16.7203 4.92307C17.8219 3.8205 18.0012 3.51281 17.7707 3.1282C17.2839 2.35897 16.7972 2.51281 15.4906 3.84615Z" fill="#DB3834"/>
<path d="M8.59916 5.00001C4.83322 6.33334 3.93656 11.359 6.98518 14.0256C9.13715 15.9231 12.2114 15.7949 14.2353 13.7436C16.4129 11.5897 16.4129 8.41026 14.2353 6.25642C12.6981 4.69231 10.6999 4.25642 8.59916 5.00001ZM12.1858 6.56411C14.9526 7.89744 14.9782 11.9487 12.237 13.359C9.49581 14.7692 6.37034 12.641 6.729 9.58975C7.0108 6.92308 9.752 5.41026 12.1858 6.56411Z" fill="#DB3834"/>
<path d="M0.503662 10V10.7692H2.42506H4.34646V10V9.23076H2.42506H0.503662V10Z" fill="#DB3834"/>
<path d="M16.6435 10V10.7692H18.5649H20.4863V10V9.23076H18.5649H16.6435V10Z" fill="#DB3834"/>
<path d="M4.24396 15.1025C2.98865 16.3846 2.83494 17 3.73159 17.359C4.0134 17.4615 4.55139 17.1025 5.44804 16.2051C6.72897 14.9231 6.75459 14.8974 6.26784 14.359C6.01165 14.0769 5.72985 13.8461 5.65299 13.8461C5.55052 13.8461 4.91005 14.4102 4.24396 15.1025Z" fill="#DB3834"/>
<path d="M14.7221 14.359C14.2353 14.8974 14.2609 14.9231 15.5419 16.2051C16.4385 17.1025 16.9765 17.4615 17.2583 17.359C18.155 17 18.0013 16.3846 16.746 15.1025C16.0799 14.4102 15.4394 13.8461 15.3369 13.8461C15.2601 13.8461 14.9783 14.0769 14.7221 14.359Z" fill="#DB3834"/>
<path d="M9.72638 18.0769V20H10.4949H11.2635V18.0769V16.1538H10.4949H9.72638V18.0769Z" fill="#DB3834"/>
</svg>
