<svg width="66" height="65" viewBox="0 0 66 65" fill="none" xmlns="http://www.w3.org/2000/svg">
<path d="M37.4884 10.7842C24.7302 16.6411 11.4651 22.7769 8.0855 24.3574C1.74867 27.2394 -0.194622 29.3776 0.73478 32.5385C1.41071 34.8627 2.93155 35.7923 10.7047 38.5813L16.7881 40.7196L19.4918 50.3882C21.942 58.8482 23.7164 62.288 25.7441 62.288C26.0821 62.288 28.4479 60.3356 30.9826 58.0115L35.7141 53.828L41.037 58.3833C49.4861 65.6348 51.1759 66.2855 54.3021 63.4036C55.823 62.102 56.9213 57.2677 61.1459 33.1893C64.779 12.5506 65.9619 4.09055 65.3704 2.88198C64.61 1.30154 62.7512 0 61.3149 0C60.9769 0 50.2465 4.83429 37.4884 10.7842ZM61.1459 6.2288C61.1459 6.69363 59.0336 18.6864 56.4989 33.0033C53.9641 47.3203 51.8519 59.1271 51.8519 59.22C51.8519 60.4286 48.8947 58.5693 42.8958 53.4561C39.0092 50.1093 35.5451 47.4132 35.2071 47.4132C34.8692 47.4132 33.0104 49.1796 30.9826 51.3178C29.0393 53.4561 27.1805 54.9436 26.8425 54.5717C26.589 54.2928 26.589 51.5038 26.927 48.4359C27.5184 43.0438 27.6874 42.7649 33.7708 36.3501C37.2349 32.7244 42.8958 26.7745 46.36 23.1488C49.9086 19.4301 52.6123 16.2692 52.3588 16.0833C52.1898 15.8974 45.0926 20.4528 36.559 26.3097L21.0126 36.9079L13.5774 34.1189C9.43736 32.6315 6.31119 31.2369 6.56466 30.958C7.07161 30.4002 59.625 5.76396 60.5545 5.67099C60.8924 5.57803 61.1459 5.85693 61.1459 6.2288Z" fill="#DB3834"/>
</svg>
