<svg width="65" height="65" viewBox="0 0 65 65" fill="none" xmlns="http://www.w3.org/2000/svg">
<path d="M6.89571 1.77267C0.593121 4.92407 0.00225315 7.48459 0.00225315 32.4989C0.00225315 65.8841 -0.884048 64.9977 32.5 64.9977C65.884 64.9977 64.9977 65.8841 64.9977 32.4989C64.9977 13.3935 64.8008 9.84814 63.2251 6.8937C60.0738 0.590889 57.5134 0 32.5 0C13.3953 0 9.85005 0.19696 6.89571 1.77267ZM57.3165 7.58307C58.8921 9.06029 59.0891 11.1284 59.0891 32.3019C59.0891 52.4906 58.8921 55.7405 57.4149 57.3162C55.9378 58.8919 53.8697 59.0889 32.697 59.0889C12.509 59.0889 9.25919 58.8919 7.68354 57.4147C6.10789 55.9375 5.91093 53.8693 5.91093 32.6958C5.91093 12.5071 6.10789 9.25726 7.58506 7.68155C9.06223 6.10585 11.1303 5.90889 32.303 5.90889C52.491 5.90889 55.7408 6.10585 57.3165 7.58307Z" fill="#DB3834"/>
<path d="M26.5913 22.4534C26.5913 22.8473 27.0837 23.7337 27.6746 24.3245C28.2654 24.9154 28.5609 26.885 28.3639 28.6576C27.97 33.4832 25.6065 32.8923 22.6522 27.3774C20.3872 23.0443 19.8948 22.6504 16.5466 22.6504C14.0846 22.6504 12.8044 23.1428 12.8044 23.9306C12.8044 25.6048 19.107 36.1421 21.9628 39.2935C26.2959 43.922 35.4543 46.0886 35.4543 42.4448C35.4543 41.46 36.0452 40.0813 36.7346 39.4904C37.7193 38.7026 38.7041 39.0965 40.8706 41.3615C43.0372 43.6266 44.6128 44.3159 47.3702 44.3159C52.3926 44.3159 52.9835 42.7402 49.3398 38.998C45.5976 35.0588 45.4991 33.8771 49.2413 28.9531C53.2789 23.6352 53.0819 22.6504 48.0595 22.6504C44.0219 22.6504 43.7265 22.9458 41.1661 27.5744C37.4239 34.271 35.4543 34.074 35.4543 27.082V21.6656H31.0228C28.5609 21.6656 26.5913 22.0595 26.5913 22.4534Z" fill="#DB3834"/>
</svg>
