<svg width="66" height="65" viewBox="0 0 66 65" fill="none" xmlns="http://www.w3.org/2000/svg">
<path d="M25.3444 1.31269C15.8618 3.75524 9.66171 8.73081 5.1028 17.2345C0.908598 25.0145 0.179172 34.9656 3.27923 43.5598L5.28515 49.3496L3.0057 57.1296C1.82038 61.4719 0.81742 65 0.908598 65C0.908598 65 4.73808 64.0049 9.297 62.7384L17.6854 60.5672L22.5178 62.467C29.5386 65.0905 41.027 64.4572 47.5919 61.11C57.0744 56.3154 62.4539 49.621 65.0069 39.308C69.2011 22.391 58.2597 5.20268 40.7535 1.13176C34.371 -0.406151 31.4533 -0.406151 25.3444 1.31269ZM43.0329 6.83105C49.3242 8.91174 57.1656 16.7822 59.3538 23.2957C63.7304 36.3226 57.7126 50.6161 45.4036 56.5868C38.474 59.934 28.718 60.2054 22.4267 57.1296C18.506 55.2298 18.0501 55.1393 13.8559 56.4058C11.3941 57.1296 9.20582 57.5819 8.93228 57.4009C8.74993 57.1296 9.02346 54.8679 9.66171 52.4254C10.6647 48.264 10.5735 47.4498 8.74993 43.8312C-1.64439 22.391 19.9648 -0.948936 43.0329 6.83105Z" fill="#DB3834"/>
<path d="M18.2325 20.7624C16.3177 24.4715 17.0471 28.271 20.7855 33.7894C24.4326 39.3078 31.1798 44.5548 37.0152 46.4545C42.1212 48.1734 45.3124 47.7211 47.9566 45.0976C50.8743 42.2027 50.2361 40.2124 45.7683 38.0413L41.6653 36.1415L39.8417 38.5841L38.0182 41.0266L33.7328 38.765C31.3621 37.5889 28.5356 35.0559 27.1679 33.1561C24.9797 29.8089 24.9797 29.628 26.5297 27.9092C27.9885 26.2808 27.9885 26.0094 26.5297 22.1194C25.162 18.5008 24.5238 17.958 22.3355 17.958C20.3296 17.958 19.4178 18.5912 18.2325 20.7624Z" fill="#DB3834"/>
</svg>
