<?xml version="1.0" standalone="no"?>
<!DOCTYPE svg PUBLIC "-//W3C//DTD SVG 20010904//EN"
 "http://www.w3.org/TR/2001/REC-SVG-20010904/DTD/svg10.dtd">
<svg version="1.0" xmlns="http://www.w3.org/2000/svg"
 width="78.000000pt" height="78.000000pt" viewBox="0 0 78.000000 78.000000"
 preserveAspectRatio="xMidYMid meet">
<metadata>
Created by potrace 1.14, written by Peter Selinger 2001-2017
</metadata>
<g transform="translate(0.000000,78.000000) scale(0.100000,-0.100000)"
fill="#000000" stroke="none">
<path d="M570 605 c-18 -21 -4 -47 22 -43 29 4 35 34 10 47 -15 8 -23 7 -32
-4z"/>
<path d="M175 589 c-81 -40 -122 -99 -129 -188 -11 -137 91 -243 234 -243 59
0 140 27 156 53 8 14 12 168 4 170 -3 0 -13 2 -22 4 -16 3 -18 -6 -18 -73 0
-91 -9 -101 -101 -109 -75 -7 -139 22 -177 80 -22 33 -27 52 -27 102 0 51 5
69 28 103 55 78 164 103 252 58 37 -19 51 -22 57 -13 13 20 4 31 -43 54 -59
29 -157 30 -214 2z"/>
<path d="M570 327 c0 -168 0 -168 22 -165 21 3 22 8 23 108 2 125 16 161 73
178 19 6 39 9 44 6 4 -3 8 4 8 15 0 11 -4 22 -9 25 -17 11 -68 -6 -95 -30
l-26 -25 0 30 c0 24 -4 29 -20 28 -19 -1 -20 -8 -20 -170z"/>
</g>
</svg>
