<svg xmlns="http://www.w3.org/2000/svg" height="612" width="612"><path d="M306 0c169.008 0 306 136.992 306 306S475.008 612 306 612C137.012 612 0 475.008 0 306S136.992 0 306 0zm0 573.75c147.875 0 267.75-119.875 267.75-267.75S453.875 38.25 306 38.25 38.25 158.125 38.25 306 158.125 573.75 306 573.75zm-86.751-431.001c7.478-7.478 19.584-7.478 27.043 0l146.44 146.44c4.59 4.59 6.005 10.863 4.953 16.811 1.052 5.929-.382 12.221-4.953 16.811l-146.44 146.44c-7.479 7.459-19.584 7.459-27.043 0-7.478-7.478-7.478-19.584 0-27.043L355.457 306 219.269 169.811c-7.479-7.478-7.479-19.584-.02-27.062z"/></svg>