<svg xmlns="http://www.w3.org/2000/svg" height="100" width="100"><path d="M50 0c27.614 0 50 22.386 50 50s-22.386 50-50 50S0 77.614 0 50 22.386 0 50 0z" opacity=".2"/><path d="M49.937 84.998a34.807 34.807 0 01-17.106-4.47c-2.464-1.327-.393-5.007 2.02-3.59 12.019 6.765 27.231 4.673 36.994-5.093 12.047-12.047 12.047-31.648 0-43.695-12.047-12.049-31.649-12.048-43.695 0-12.046 12.047-12.046 31.648 0 43.695 1.943 1.942-.97 4.856-2.913 2.914-13.653-13.654-13.653-35.869 0-49.523 13.654-13.652 35.867-13.653 49.522 0 13.653 13.654 13.653 35.869 0 49.523C68.033 81.484 59.026 85 49.937 85z"/><path d="M49.937 84.998a34.807 34.807 0 01-17.106-4.47c-2.464-1.327-.393-5.007 2.02-3.59 12.019 6.765 27.231 4.673 36.994-5.093 12.047-12.047 12.047-31.648 0-43.695-12.047-12.049-31.649-12.048-43.695 0-12.046 12.047-12.046 31.648 0 43.695 1.943 1.942-.97 4.856-2.913 2.914-13.653-13.654-13.653-35.869 0-49.523 13.654-13.652 35.867-13.653 49.522 0 13.653 13.654 13.653 35.869 0 49.523C68.033 81.484 59.026 85 49.937 85z" fill="#fff"/></svg>