<?xml version="1.0" encoding="UTF-8" standalone="no"?>
<svg
   xmlns:dc="http://purl.org/dc/elements/1.1/"
   xmlns:cc="http://creativecommons.org/ns#"
   xmlns:rdf="http://www.w3.org/1999/02/22-rdf-syntax-ns#"
   xmlns:svg="http://www.w3.org/2000/svg"
   xmlns="http://www.w3.org/2000/svg"
   xmlns:sodipodi="http://sodipodi.sourceforge.net/DTD/sodipodi-0.dtd"
   xmlns:inkscape="http://www.inkscape.org/namespaces/inkscape"
   inkscape:version="1.0 (4035a4fb49, 2020-05-01)"
   sodipodi:docname="video.svg"
   id="svg42"
   version="1.1"
   viewBox="0 0 100 100"
   height="100"
   width="100">
  <metadata
     id="metadata48">
    <rdf:RDF>
      <cc:Work
         rdf:about="">
        <dc:format>image/svg+xml</dc:format>
        <dc:type
           rdf:resource="http://purl.org/dc/dcmitype/StillImage" />
      </cc:Work>
    </rdf:RDF>
  </metadata>
  <defs
     id="defs46" />
  <sodipodi:namedview
     inkscape:current-layer="svg42"
     inkscape:window-maximized="1"
     inkscape:window-y="-8"
     inkscape:window-x="-8"
     inkscape:cy="52.83802"
     inkscape:cx="67.861997"
     inkscape:zoom="3.8042345"
     showgrid="false"
     id="namedview44"
     inkscape:window-height="705"
     inkscape:window-width="1366"
     inkscape:pageshadow="2"
     inkscape:pageopacity="0"
     guidetolerance="10"
     gridtolerance="10"
     objecttolerance="10"
     borderopacity="1"
     bordercolor="#666666"
     pagecolor="#ffffff" />
  <g
     id="g40">
    <g
       id="g32"
       opacity=".2" />
    <g
       id="g38">
      <path
         sodipodi:nodetypes="csccccccccccc"
         id="path34"
         d="m 44.934,66.82 c -1.137707,0 -2.06,-0.922293 -2.06,-2.06 V 35.235 c 2.99e-4,-1.746515 2.037446,-2.700278 3.379,-1.582 l 17.714,14.762 c 0.988986,0.823224 0.988986,2.341776 0,3.165 L 46.253,66.343 c -0.370599,0.308612 -0.837729,0.477416 -1.32,0.477 z m 2.06,-27.187 v 20.73 L 59.431,49.997 Z" />
      <path
         sodipodi:nodetypes="csccccccccccc"
         id="path36"
         d="m 44.934,66.82 c -1.137707,0 -2.06,-0.922293 -2.06,-2.06 V 35.235 c 2.99e-4,-1.746515 2.037446,-2.700278 3.379,-1.582 l 17.714,14.762 c 0.988986,0.823224 0.988986,2.341776 0,3.165 L 46.253,66.343 c -0.370599,0.308612 -0.837729,0.477416 -1.32,0.477 z m 2.06,-27.187 v 20.73 L 59.431,49.997 Z"
         fill="#ffffff" />
    </g>
  </g>
</svg>
